{
  "accessors": [
    {
      "name": "group3_1_0_positions",
      "componentType": 5126,
      "count": 200,
      "min": [
        -0.4870949983596802,
        1.1434420347213745,
        -1.3008919954299927
      ],
      "max": [
        1.5129050016403198,
        4.712563991546631,
        0.6991090178489685
      ],
      "type": "VEC3",
      "bufferView": 0,
      "byteOffset": 0
    },
    {
      "name": "group3_1_0_normals",
      "componentType": 5126,
      "count": 200,
      "min": [
        -1,
        -1,
        -1
      ],
      "max": [
        1,
        1,
        1
      ],
      "type": "VEC3",
      "bufferView": 1,
      "byteOffset": 0
    },
    {
      "name": "group3_1_0_texcoords",
      "componentType": 5126,
      "count": 200,
      "min": [
        -0.4999679923057556,
        0
      ],
      "max": [
        2.665281057357788,
        1
      ],
      "type": "VEC2",
      "bufferView": 2,
      "byteOffset": 0
    },
    {
      "name": "group3_1_0_indices",
      "componentType": 5123,
      "count": 240,
      "min": [
        0
      ],
      "max": [
        199
      ],
      "type": "SCALAR",
      "bufferView": 3,
      "byteOffset": 0
    },
    {
      "name": "group3_1_1_positions",
      "componentType": 5126,
      "count": 400,
      "min": [
        -0.2056169956922531,
        0.7658590078353882,
        -1.0634210109710693
      ],
      "max": [
        1.2669130563735962,
        5.077404022216797,
        0.4506399929523468
      ],
      "type": "VEC3",
      "bufferView": 0,
      "byteOffset": 2400
    },
    {
      "name": "group3_1_1_normals",
      "componentType": 5126,
      "count": 400,
      "min": [
        -1,
        -1,
        -1
      ],
      "max": [
        1,
        1,
        1
      ],
      "type": "VEC3",
      "bufferView": 1,
      "byteOffset": 2400
    },
    {
      "name": "group3_1_1_texcoords",
      "componentType": 5126,
      "count": 400,
      "min": [
        0.34375,
        0
      ],
      "max": [
        0.65625,
        1
      ],
      "type": "VEC2",
      "bufferView": 2,
      "byteOffset": 1600
    },
    {
      "name": "group3_1_1_indices",
      "componentType": 5123,
      "count": 480,
      "min": [
        0
      ],
      "max": [
        399
      ],
      "type": "SCALAR",
      "bufferView": 3,
      "byteOffset": 480
    }
  ],
  "asset": {
    "generator": "obj2gltf",
    "version": "2.0"
  },
  "buffers": [
    {
      "name": "cask_v3",
      "byteLength": 120100,
      "uri": "data:application/octet-stream;base64,"
    }
  ],
  "bufferViews": [
    {
      "name": "bufferView_0",
      "buffer": 0,
      "byteLength": 7200,
      "byteOffset": 0,
      "byteStride": 12,
      "target": 34962
    },
    {
      "name": "bufferView_1",
      "buffer": 0,
      "byteLength": 7200,
      "byteOffset": 7200,
      "byteStride": 12,
      "target": 34962
    },
    {
      "name": "bufferView_2",
      "buffer": 0,
      "byteLength": 4800,
      "byteOffset": 14400,
      "byteStride": 8,
      "target": 34962
    },
    {
      "name": "bufferView_3",
      "buffer": 0,
      "byteLength": 1440,
      "byteOffset": 19200,
      "target": 34963
    },
    {
      "buffer": 0,
      "byteOffset": 20640,
      "byteLength": 99459
    }
  ],
  "images": [
    {
      "name": "nuclear_coordinates_005",
      "mimeType": "image/jpeg",
      "bufferView": 4
    }
  ],
  "materials": [
    {
      "name": "pCylinder9SG",
      "pbrMetallicRoughness": {
        "baseColorTexture": {
          "index": 0
        },
        "baseColorFactor": [
          1,
          1,
          1,
          1
        ],
        "metallicFactor": 0,
        "roughnessFactor": 1
      },
      "emissiveFactor": [
        0,
        0,
        0
      ],
      "alphaMode": "OPAQUE",
      "doubleSided": false
    },
    {
      "name": "pCylinder8SG",
      "pbrMetallicRoughness": {
        "baseColorFactor": [
          1,
          0.43,
          0.13,
          1
        ],
        "metallicFactor": 0,
        "roughnessFactor": 1
      },
      "emissiveFactor": [
        0,
        0,
        0
      ],
      "alphaMode": "OPAQUE",
      "doubleSided": false
    }
  ],
  "meshes": [
    {
      "name": "group3_1",
      "primitives": [
        {
          "attributes": {
            "POSITION": 0,
            "NORMAL": 1,
            "TEXCOORD_0": 2
          },
          "indices": 3,
          "material": 0,
          "mode": 4
        },
        {
          "attributes": {
            "POSITION": 4,
            "NORMAL": 5,
            "TEXCOORD_0": 6
          },
          "indices": 7,
          "material": 1,
          "mode": 4
        }
      ]
    }
  ],
  "nodes": [
    {
      "name": "group3",
      "mesh": 0
    }
  ],
  "samplers": [
    {
      "magFilter": 9729,
      "minFilter": 9986,
      "wrapS": 10497,
      "wrapT": 10497
    }
  ],
  "scene": 0,
  "scenes": [
    {
      "nodes": [
        0
      ]
    }
  ],
  "textures": [
    {
      "name": "nuclear_coordinates_005",
      "sampler": 0,
      "source": 0
    }
  ]
}
